<?xml version="1.0" standalone="no"?>
<!DOCTYPE svg PUBLIC "-//W3C//DTD SVG 20010904//EN"
 "http://www.w3.org/TR/2001/REC-SVG-20010904/DTD/svg10.dtd">
<svg version="1.0" xmlns="http://www.w3.org/2000/svg"
 width="1819.000000pt" height="1819.000000pt" viewBox="0 0 1819.000000 1819.000000"
 preserveAspectRatio="xMidYMid meet">
<metadata>
Created by potrace 1.14, written by Peter Selinger 2001-2017
</metadata>
<g transform="translate(0.000000,1819.000000) scale(0.100000,-0.100000)"
fill="#000000" stroke="none">
<path d="M9802 17371 c-155 -106 -584 -448 -807 -645 -412 -364 -831 -787
-1230 -1241 -138 -157 -413 -484 -469 -557 l-28 -38 -92 0 c-109 0 -170 -16
-280 -73 -94 -49 -195 -124 -295 -221 -68 -65 -70 -62 -9 19 31 41 -145 -110
-207 -178 l-50 -54 -119 -13 c-163 -17 -431 -8 -555 19 -153 34 -295 87 -482
181 -226 113 -254 131 -287 185 -27 45 -52 59 -52 30 0 -23 -14 -18 -72 26
l-53 42 66 -69 c50 -51 77 -91 106 -154 95 -206 275 -463 420 -600 145 -138
307 -238 466 -287 38 -11 56 -22 53 -30 -4 -10 -1 -10 14 -1 32 21 32 3 -2
-56 -33 -58 -33 -58 -134 -96 -611 -229 -1035 -603 -1229 -1085 -83 -208 -120
-400 -119 -635 0 -267 49 -512 168 -853 l56 -159 -25 -133 c-22 -120 -47 -332
-59 -500 -5 -70 3 -45 29 95 20 107 85 353 96 360 4 3 9 19 11 35 3 26 12 14
70 -100 37 -71 67 -127 67 -124 1 3 -21 55 -48 115 -81 183 -81 156 -10 350
34 93 90 231 125 308 58 127 215 430 234 449 4 5 -8 -51 -26 -125 -77 -301
-169 -793 -209 -1118 -8 -69 -19 -159 -25 -200 -6 -41 -37 -286 -70 -545 -33
-258 -77 -600 -99 -759 -38 -281 -40 -289 -72 -335 -18 -25 -105 -146 -193
-269 -155 -215 -162 -223 -176 -202 -141 201 -315 388 -445 476 -47 32 -54 34
-136 34 -76 0 -93 -4 -148 -31 -74 -37 -152 -114 -183 -180 -13 -26 -29 -47
-36 -46 -8 1 -20 -16 -28 -40 -14 -40 -13 -47 12 -120 38 -111 137 -354 244
-598 51 -115 108 -247 128 -293 l36 -84 -66 -126 c-132 -253 -247 -557 -307
-812 -54 -231 -66 -327 -66 -555 0 -221 6 -268 61 -470 l24 -89 -25 -36 c-49
-71 -99 -203 -115 -305 -19 -120 27 -314 107 -450 44 -76 47 -85 50 -165 7
-160 5 -218 -11 -316 -8 -55 -18 -144 -22 -199 -4 -55 -11 -110 -15 -122 -5
-12 -32 -36 -62 -52 -29 -17 -65 -43 -79 -58 -38 -40 -69 -116 -76 -185 l-5
-59 -111 -91 c-135 -112 -409 -379 -520 -508 -160 -186 -194 -237 -363 -537
-207 -371 -367 -732 -453 -1023 -23 -80 -50 -170 -60 -200 -10 -30 -20 -67
-24 -82 l-6 -28 7423 0 c5760 0 7426 3 7435 12 9 9 12 228 12 923 0 1031 6
943 -84 1178 -24 66 -42 125 -40 132 7 17 -151 352 -253 538 -44 81 -78 147
-74 147 3 0 31 -7 61 -15 30 -8 55 -13 57 -11 1 1 -30 16 -70 32 l-72 30 -85
126 c-47 70 -125 175 -175 233 -49 59 -94 114 -100 122 -13 19 -211 194 -300
264 -109 87 -211 155 -467 313 -383 235 -546 349 -815 568 -166 136 -248 195
-322 234 -52 27 -53 28 -30 38 263 109 424 227 562 411 100 134 193 353 213
505 4 27 10 48 14 45 4 -2 15 -55 24 -117 10 -62 19 -120 21 -128 9 -34 -7
368 -21 525 -57 645 -122 858 -682 2240 -115 284 -208 527 -291 762 l-50 142
52 33 c29 18 97 69 152 114 55 44 161 121 235 171 515 345 1015 794 1358 1220
109 137 287 401 395 588 221 384 378 709 787 1630 534 1204 615 1404 596 1479
-3 14 -18 33 -31 42 -24 16 -53 12 -573 -75 -1492 -248 -2101 -395 -3249 -784
-348 -118 -490 -160 -938 -277 -170 -45 -369 -97 -441 -117 l-132 -36 -68 56
c-197 158 -485 303 -779 392 -204 62 -563 125 -847 150 -43 4 -78 9 -78 12 0
2 11 52 25 111 58 256 113 613 136 902 8 91 13 320 14 555 0 425 -13 1141 -21
1188 -7 35 -29 57 -58 57 -12 0 -68 -31 -124 -69z m6938 -2251 c0 -20 -116
-363 -181 -539 -162 -432 -409 -989 -615 -1391 -313 -608 -427 -806 -554 -965
-22 -27 -68 -86 -102 -130 -203 -262 -385 -460 -593 -644 -351 -311 -616 -483
-840 -546 -193 -54 -476 -88 -875 -105 -228 -10 -378 -22 -448 -36 -28 -6 -31
-3 -47 42 -10 27 -39 102 -65 167 -26 64 -47 117 -46 117 0 0 36 -7 79 -15 83
-16 277 -21 277 -7 0 4 -39 18 -87 30 -303 78 -310 81 -326 120 -29 70 -125
267 -191 390 -36 68 -66 125 -66 127 0 1 60 5 133 8 73 4 159 14 192 23 33 9
72 17 87 17 15 0 25 3 23 8 -3 4 20 15 51 24 71 20 64 31 -11 15 -54 -11 -56
-11 -89 17 -18 15 -91 69 -163 118 l-131 90 93 12 c278 35 512 200 695 491 36
57 95 140 132 185 65 79 81 112 35 70 -28 -26 -123 -70 -247 -116 -186 -68
-186 -72 -1 124 222 235 389 398 556 544 162 141 409 341 445 360 33 17 227
55 530 105 135 21 317 53 404 69 88 17 161 29 163 27 6 -5 -272 -257 -487
-441 -149 -128 -214 -176 -275 -206 -72 -36 -74 -40 -10 -22 23 7 -101 -95
-227 -186 -49 -34 -88 -65 -88 -67 0 -6 -14 -14 190 114 91 58 200 129 242
159 42 29 102 65 133 78 155 69 435 240 687 420 88 64 162 114 164 112 2 -2
-8 -32 -22 -67 -14 -34 -70 -180 -124 -324 -149 -396 -189 -483 -291 -636
-117 -174 -293 -325 -492 -419 -183 -86 -420 -154 -597 -171 -82 -7 -71 -8 80
-5 260 5 462 56 645 161 282 163 456 377 610 752 70 171 285 760 285 781 0 27
-25 44 -52 35 -12 -4 -81 -50 -153 -103 -223 -166 -429 -308 -544 -376 -8 -5
84 90 205 210 218 217 219 217 279 231 l60 13 -52 -5 c-29 -2 -53 -2 -53 1 0
4 11 21 24 38 28 37 47 82 39 91 -4 3 -37 -27 -73 -67 l-67 -72 -209 -18
c-242 -20 -428 -46 -638 -88 -82 -16 -151 -28 -153 -26 -4 5 311 230 482 344
359 241 569 365 879 522 216 109 317 153 496 218 211 76 426 145 495 159 17 3
50 12 75 20 110 34 320 57 320 34z m-8510 -3265 c152 -12 142 -7 212 -103 73
-102 165 -210 255 -303 l65 -66 -78 13 c-43 8 -132 17 -198 20 l-121 7 -115
69 -115 69 68 -68 c37 -38 67 -71 67 -75 0 -3 -34 -14 -76 -23 -89 -20 -147
-42 -140 -54 6 -10 -22 -37 -29 -29 -3 2 14 129 37 282 l43 277 25 -5 c14 -3
59 -8 100 -11z m-2340 -470 c0 -2 14 -19 30 -37 31 -34 37 -48 20 -48 -17 0
-205 62 -216 71 -7 5 -15 30 -19 56 -4 25 -9 51 -11 58 -3 7 11 29 30 50 l36
38 65 -92 c36 -51 65 -94 65 -96z m2825 -46 c114 -21 121 -24 210 -104 27 -25
33 -35 20 -31 -51 13 -176 35 -235 42 -46 5 -59 9 -45 15 17 6 16 8 -8 8 -16
1 -65 24 -110 52 l-82 51 70 -7 c39 -4 119 -16 180 -26z m-320 -39 l49 -50
-48 0 c-42 0 -175 19 -184 26 -2 1 9 19 25 38 24 31 34 36 68 36 36 0 47 -6
90 -50z m-2592 -16 l57 -41 -37 -7 c-77 -12 -79 -11 -90 48 -7 39 -6 53 1 49
6 -4 37 -26 69 -49z m2371 20 c-10 -15 -23 -23 -31 -20 -8 4 -23 6 -34 6 -48
0 11 36 64 39 16 1 17 0 1 -25z m-114 -109 c17 -9 30 -18 30 -20 0 -3 -20 -5
-45 -5 -38 0 -45 3 -45 20 0 24 20 26 60 5z m-2247 -117 c-36 -35 -37 -35 -47
5 -6 26 -5 27 36 27 l43 0 -32 -32z m298 -64 c10 -9 19 -26 19 -36 0 -45 44
-231 80 -338 41 -125 140 -331 200 -420 42 -62 158 -175 189 -185 28 -9 26
-31 -4 -51 -30 -19 -105 -15 -191 11 -153 45 -235 194 -303 555 -17 85 -39
198 -50 250 -12 52 -24 130 -27 172 l-7 77 37 -9 c21 -4 46 -16 57 -26z m1779
-48 c0 -16 -36 -63 -43 -56 -2 3 -7 20 -10 38 -6 30 -5 32 23 32 19 0 30 -5
30 -14z m623 -26 c-40 -80 -35 -252 11 -387 31 -91 48 -123 114 -216 57 -80
115 -130 215 -188 96 -56 107 -61 155 -68 l47 -6 -95 -42 c-196 -85 -360 -123
-544 -124 -82 0 -105 -3 -87 -10 14 -5 31 -7 38 -4 9 3 11 0 7 -7 -5 -7 1 -9
19 -4 14 3 58 2 99 -4 60 -8 139 -15 226 -19 7 -1 11 -5 8 -10 -4 -5 2 -7 11
-5 24 6 178 -39 261 -77 99 -44 282 -153 375 -222 104 -77 249 -217 349 -337
98 -117 98 -126 7 -239 l-62 -76 51 50 c54 51 62 49 37 -12 -30 -72 -13 -55
31 30 24 48 46 87 48 87 2 0 -1 -23 -6 -51 -13 -73 -3 -85 12 -14 14 69 8 73
97 -70 126 -202 217 -432 268 -680 25 -118 27 -144 22 -275 -6 -144 -28 -274
-58 -335 -10 -21 -27 -34 -54 -43 -22 -7 -209 -81 -415 -164 -425 -171 -731
-309 -1200 -542 -317 -157 -467 -219 -682 -280 -150 -43 -230 -55 -379 -58
-201 -4 -236 7 -382 116 -62 46 -143 115 -182 152 l-70 68 70 16 c170 39 278
134 552 487 61 77 112 146 114 152 2 6 47 23 99 39 52 16 104 34 115 40 11 6
75 34 142 63 67 28 143 64 168 80 25 16 48 29 52 29 14 0 205 149 243 190 8 9
52 47 96 84 77 63 203 206 251 285 33 54 118 229 139 286 10 28 29 66 44 85
14 19 36 52 49 74 20 35 21 40 6 56 -19 21 -68 14 -112 -18 -49 -36 -150 -146
-167 -182 -25 -55 -57 -193 -47 -200 10 -6 -36 -103 -96 -202 -116 -193 -356
-403 -595 -521 -256 -127 -323 -144 -723 -186 -269 -28 -367 -19 -512 47 -115
51 -216 127 -259 192 -15 22 -31 40 -35 40 -14 0 -98 118 -127 178 -31 61 -23
89 21 84 92 -11 455 276 547 432 32 55 34 65 35 145 0 99 -10 123 -64 150 -75
38 -145 46 -416 46 -279 0 -380 -11 -574 -61 -110 -29 -227 -81 -257 -115 -67
-76 -16 -232 123 -375 110 -113 306 -226 443 -255 43 -9 49 -13 39 -26 -11
-12 -9 -13 14 -8 18 5 27 3 27 -5 0 -23 61 -132 104 -189 53 -68 164 -180 228
-228 41 -32 45 -38 31 -51 -8 -8 -19 -26 -24 -39 -4 -12 -23 -32 -41 -43 -18
-11 -29 -20 -25 -20 7 0 -19 -52 -39 -79 -2 -1 -18 8 -36 22 -18 14 -62 39
-97 57 -332 166 -625 449 -826 797 -111 192 -112 350 -4 529 32 52 152 170
314 309 256 219 662 585 719 646 51 57 81 102 125 192 l58 119 7 -37 c4 -20 9
-35 11 -33 3 2 1 24 -3 49 -6 32 -4 50 6 67 13 20 13 22 -1 16 -20 -7 -24 1
-32 66 -7 56 -7 56 40 107 25 29 69 69 97 89 l50 37 42 -45 c39 -43 126 -188
140 -234 6 -19 2 -23 -31 -29 -75 -14 -230 -101 -212 -119 3 -4 26 5 51 19 53
30 138 60 194 69 36 6 40 4 61 -28 32 -50 212 -272 268 -331 52 -55 52 -54
-29 59 -55 77 -186 288 -186 300 0 3 37 6 83 6 72 0 130 -6 357 -34 l45 -6
-35 16 c-55 25 -154 43 -305 55 -77 5 -149 11 -160 12 -15 2 -40 43 -103 172
-71 143 -81 171 -69 180 9 6 51 23 94 38 l78 27 100 -95 c55 -53 125 -115 155
-138 30 -23 84 -67 120 -98 36 -31 106 -80 155 -109 50 -29 108 -67 130 -84
22 -18 73 -51 113 -75 60 -36 75 -51 92 -88 11 -25 20 -51 20 -57 0 -15 158
-436 172 -456 8 -13 9 -12 4 3 -32 104 -127 497 -120 497 3 0 45 -23 95 -51
50 -28 92 -49 94 -47 2 2 -37 28 -86 58 -109 66 -120 77 -124 127 -1 21 -6 45
-9 53 -3 8 -13 51 -22 95 -8 44 -31 140 -50 213 -19 73 -34 138 -34 143 0 16
86 -50 136 -103 24 -26 44 -54 44 -63 0 -8 4 -15 9 -15 5 0 7 28 5 63 -10 183
24 568 57 649 13 32 26 34 201 36 l116 2 -15 -30z m412 -125 c43 -42 28 -112
-39 -183 -42 -45 -77 -62 -126 -62 -54 0 -90 34 -90 85 0 49 19 82 79 138 46
43 54 47 101 47 41 0 56 -5 75 -25z m-1045 0 c0 -8 -2 -15 -4 -15 -2 0 -6 7
-10 15 -3 8 -1 15 4 15 6 0 10 -7 10 -15z m-1510 -85 c10 -5 28 -25 40 -44 19
-32 20 -37 6 -70 -16 -38 -87 -92 -110 -83 -13 5 -45 78 -67 150 -7 26 -5 30
24 42 38 17 81 19 107 5z m3079 -146 c26 -34 27 -68 1 -94 -47 -47 -150 -4
-136 58 15 63 97 84 135 36z m-2841 -253 c7 -21 12 -41 12 -45 0 -11 -46 -6
-58 6 -24 24 -8 78 23 78 7 0 17 -17 23 -39z m-80 -443 l33 -9 -29 -37 c-59
-74 -138 -146 -339 -310 -112 -92 -214 -174 -226 -182 -26 -19 -28 -21 71 129
126 190 392 446 442 425 8 -3 30 -10 48 -16z m-1347 -1228 c39 -10 85 -27 101
-37 30 -18 31 -19 33 -113 2 -52 11 -124 20 -160 19 -74 86 -196 180 -330 64
-89 66 -95 95 -223 48 -220 102 -528 150 -862 34 -235 59 -355 97 -467 l37
-108 -27 -28 c-40 -42 -161 -98 -249 -116 -98 -20 -230 -20 -316 -1 -73 17
-169 64 -164 80 2 6 42 19 88 29 88 20 109 36 48 36 -20 0 -54 5 -74 11 l-38
11 15 52 c7 28 16 125 20 216 15 414 -71 1079 -213 1643 -22 86 -24 110 -18
210 4 61 12 118 18 126 14 17 85 50 109 51 9 0 49 -9 88 -20z m-1431 -172
c223 -251 412 -531 563 -834 56 -112 94 -209 205 -519 33 -93 82 -228 107
-300 26 -71 76 -191 111 -266 35 -74 64 -139 64 -144 0 -4 11 -23 25 -41 45
-59 49 -81 21 -129 -26 -44 -104 -109 -172 -144 -107 -53 -322 -86 -409 -62
l-40 10 -24 113 c-73 348 -272 828 -731 1763 -144 292 -147 304 -115 394 19
56 73 122 131 162 48 33 148 78 175 79 9 0 49 -37 89 -82z m295 -2494 c78 -41
120 -79 184 -165 33 -44 74 -96 90 -117 17 -20 57 -80 90 -132 l59 -95 -151
-51 c-232 -78 -336 -123 -468 -205 l-77 -47 -61 119 c-36 70 -61 132 -61 150
0 65 88 352 133 432 19 34 79 86 142 124 31 19 66 15 120 -13z m804 -544 c101
-19 394 -51 532 -60 183 -10 282 0 357 38 l59 30 18 -56 c41 -127 13 -457 -57
-667 -103 -310 -295 -555 -455 -581 l-39 -6 -64 159 c-34 87 -72 175 -82 197
-16 31 -17 40 -7 47 10 6 6 18 -18 51 -16 24 -40 62 -52 85 -24 49 -61 65 -89
40 -14 -12 -28 -13 -80 -4 -46 7 -136 6 -325 -4 -316 -16 -386 -15 -468 6 -85
22 -113 38 -191 107 -72 63 -108 123 -108 179 0 44 25 83 46 71 10 -6 42 5 97
34 112 58 470 213 586 254 52 18 124 45 160 61 73 31 98 34 180 19z m-1254
-172 c4 -13 25 -60 48 -105 39 -80 40 -84 22 -103 -16 -18 -16 -22 -3 -42 8
-13 18 -45 22 -73 10 -66 65 -164 120 -212 54 -47 184 -122 222 -127 16 -2 61
-13 99 -23 62 -16 89 -33 234 -141 158 -119 219 -154 129 -75 -23 21 -79 73
-123 115 l-80 78 90 0 c50 0 128 7 175 14 47 8 150 16 229 17 l144 4 10 -30
c9 -27 7 -32 -39 -73 -77 -68 -153 -114 -219 -134 -66 -19 -187 -61 -195 -67
-3 -2 0 -6 6 -8 6 -2 19 -10 30 -17 17 -13 15 -17 -31 -67 -26 -30 -63 -78
-82 -106 -39 -61 -58 -76 -134 -102 -122 -42 -211 -36 -400 25 l-107 34 -125
128 c-246 251 -301 327 -353 487 -32 98 -35 116 -29 177 5 51 14 76 34 102 14
20 59 79 100 133 72 95 178 213 193 213 3 0 10 -10 13 -22z m-201 -1194 c3 -8
2 -12 -4 -9 -6 3 -10 10 -10 16 0 14 7 11 14 -7z"/>
<path d="M14020 12221 l-65 -6 120 -12 c66 -7 173 -16 239 -19 117 -7 118 -7
95 -25 -38 -29 -248 -134 -324 -162 -227 -84 -379 -109 -676 -111 -208 -1
-229 -3 -248 -20 -49 -45 -9 -110 185 -303 78 -78 148 -152 155 -164 l11 -22
-83 6 c-79 6 -445 88 -536 121 -56 20 -54 12 5 -19 37 -20 41 -24 17 -19 -80
17 -207 71 -295 125 l-35 21 40 -36 c70 -64 208 -151 282 -179 116 -42 377
-82 544 -82 87 0 119 18 119 65 0 41 -44 93 -187 223 -126 114 -212 211 -199
224 3 3 77 1 163 -6 326 -26 601 28 908 179 154 76 229 127 248 167 10 22 8
28 -12 44 -21 17 -41 19 -215 17 -105 -1 -220 -4 -256 -7z"/>
<path d="M12344 11361 c11 -18 159 -113 219 -142 105 -48 189 -61 367 -56 165
5 247 21 332 63 47 24 81 55 42 40 -45 -19 -209 -36 -340 -36 -206 0 -414 39
-552 105 -40 19 -71 31 -68 26z"/>
<path d="M4157 5882 c3 -12 9 -25 14 -28 14 -8 11 10 -6 32 -13 18 -14 18 -8
-4z"/>
<path d="M4905 5240 c-3 -5 -1 -10 4 -10 6 0 11 5 11 10 0 6 -2 10 -4 10 -3 0
-8 -4 -11 -10z"/>
<path d="M3860 5052 c0 -5 7 -15 15 -22 8 -7 15 -8 15 -2 0 5 -7 15 -15 22 -8
7 -15 8 -15 2z"/>
<path d="M4631 10624 c0 -11 3 -14 6 -6 3 7 2 16 -1 19 -3 4 -6 -2 -5 -13z"/>
<path d="M16250 3016 c0 -11 30 -66 36 -66 2 0 -3 15 -12 33 -19 36 -24 44
-24 33z"/>
</g>
</svg>
